<svg width="128" height="128" viewBox="0 0 128 128" fill="none" xmlns="http://www.w3.org/2000/svg">
<rect width="128" height="128" fill="#150A26"/>
<path d="M88.6094 64.2937C69.1828 88.0454 43.882 95.4519 34.2461 97.4973C45.6835 104.594 59.0603 103.79 69.6583 91.4335L89.7918 67.495C90.7734 66.3112 90.0776 64.5433 88.6094 64.2951V64.2937Z" fill="#7A1E79"/>
<path d="M88.6088 64.2921C88.5447 64.2809 88.4819 64.2698 88.4164 64.2642L80.5972 63.5322C79.2601 63.4346 77.6218 62.5813 77.5605 61.2414L76.0254 53.2103C75.7632 52.0628 75.4077 51.5552 74.1403 51.3628L65.6532 49.7092C63.2049 49.3383 63.2551 48.9117 62.8758 46.4647L61.5094 38.2119C61.3198 36.9905 59.8558 36.4607 58.9286 37.2791L30.8351 62.2954C22.6506 69.5262 21.1127 81.7137 27.2462 90.7501L27.7272 91.4584C29.0601 93.4216 30.7416 95.1212 32.6909 96.4751C33.204 96.832 33.7226 97.1708 34.2455 97.4957C43.8814 95.4502 69.1822 88.0452 88.6088 64.2921Z" fill="#9A2999"/>
<path d="M99.4637 48.353C99.4149 48.4255 99.3619 48.4966 99.3117 48.5691C96.3935 52.7604 90.1596 55.7065 85.5194 57.4215C83.7584 58.0726 82.2261 58.5467 81.1943 58.8437C81.4551 59.3205 81.9375 59.6565 82.5008 59.7137L92.4992 60.7469C93.2271 60.8222 93.9075 61.1387 94.4345 61.6448L95.5862 62.7518C96.0854 63.2329 96.9052 63.1185 97.251 62.5176C98.5156 60.316 100.858 55.086 99.4637 48.3502V48.353Z" fill="#008113"/>
<path d="M101.498 26.1031C101.376 26.0836 101.25 26.0654 101.12 26.0501C99.8334 25.8981 98.5353 26.2118 97.438 26.902C95.7384 27.9728 92.8675 29.837 90.6604 31.5659C89.7583 32.2728 88.516 32.3523 87.5344 31.7611C87.5232 31.7541 87.5121 31.7472 87.4995 31.7402C86.7048 31.2634 85.6228 30.6987 84.2718 30.18C78.9567 27.8473 71.9518 27.3621 62.7105 30.7377L61.8962 31.0291C61.5253 31.1421 61.4068 31.552 61.6634 31.842L63.0242 33.0676C63.7729 33.7424 64.3948 34.5525 64.8089 35.4713C65.0612 36.0332 65.2411 36.6216 65.3192 37.2016L66.2255 44.0364C66.344 44.9302 67.016 45.6524 67.9 45.8337L77.6015 47.8247C78.6528 48.0408 79.4615 48.8816 79.6357 49.9413L81.0119 58.3126C81.044 58.5036 81.1067 58.6821 81.196 58.8452C82.2277 58.5482 83.76 58.0728 85.521 57.423C90.1612 55.708 96.3937 52.7605 99.3133 48.5707C99.3635 48.4982 99.4179 48.4271 99.4653 48.3546C99.3217 47.663 99.1377 46.9561 98.9118 46.2352C98.8811 46.1084 98.8532 45.9815 98.8198 45.8532C98.4043 44.247 97.7448 42.5599 96.7674 40.824C96.7492 40.7933 96.7325 40.7613 96.7144 40.7306C96.0884 39.6277 96.2905 38.2418 97.2122 37.3717C98.6385 36.0262 100.805 34.1035 102.848 32.7622C105.603 30.9524 104.751 26.6315 101.497 26.1073L101.498 26.1031Z" fill="#08B836"/>
</svg>
